<svg width="75" height="76" viewBox="0 0 75 76" fill="none" xmlns="http://www.w3.org/2000/svg">
<g clip-path="url(#clip0_2009_2708)">
<path opacity="0.98" fill-rule="evenodd" clip-rule="evenodd" d="M72.9375 49.8891C72.9375 53.8475 72.9375 57.8057 72.9375 61.7641C72.7547 61.8838 72.5881 62.0296 72.4375 62.2016C70.0197 62.2225 67.6031 62.285 65.1875 62.3891C66.2594 65.048 66.6551 67.798 66.375 70.6391C66.2101 70.8875 65.981 71.0333 65.6875 71.0766C47.1041 71.16 28.5209 71.16 9.9375 71.0766C9.64403 71.0333 9.41487 70.8875 9.25 70.6391C9.13724 70.0398 9.03307 69.4565 8.9375 68.8891C8.9375 68.2225 8.9375 67.5557 8.9375 66.8891C9.32907 62.7928 11.2874 59.6887 14.8125 57.5766C17.5353 56.5486 20.1186 55.2568 22.5625 53.7016C25.013 51.976 27.138 49.9135 28.9375 47.5141C28.6041 47.0557 28.2709 46.5975 27.9375 46.1391C24.8967 46.035 21.855 45.9725 18.8125 45.9516C18.4583 45.8475 18.2292 45.6182 18.125 45.2641C18.0626 44.4735 18.0417 43.6818 18.0625 42.8891C15.6019 42.3658 14.1227 40.8658 13.625 38.3891C13.5417 36.6391 13.5417 34.8891 13.625 33.1391C14.0573 30.6235 15.5156 29.0818 18 28.5141C19.0968 20.8363 23.201 15.4821 30.3125 12.4516C37.5255 10.0148 44.1089 11.1398 50.0625 15.8266C53.8514 19.216 56.0805 23.4452 56.75 28.5141C60.1565 29.6556 61.594 32.0306 61.0625 35.6391C61.4846 38.1438 60.7762 40.248 58.9375 41.9516C58.1847 42.4805 57.3514 42.8137 56.4375 42.9516C55.2166 43.07 54.0083 43.0282 52.8125 42.8266C52.7084 42.7225 52.6041 42.6182 52.5 42.5141C52.4166 38.0141 52.4166 33.5141 52.5 29.0141C52.6459 28.8682 52.7916 28.7225 52.9375 28.5766C53.5194 28.5142 54.1026 28.4933 54.6875 28.5141C53.4276 21.2757 49.3442 16.4216 42.4375 13.9516C35.577 12.1718 29.6395 13.7759 24.625 18.7641C22.1477 21.5317 20.6269 24.7608 20.0625 28.4516C20.6042 28.4932 21.1458 28.535 21.6875 28.5766C21.9584 28.6807 22.1459 28.8682 22.25 29.1391C22.3334 33.5141 22.3334 37.8891 22.25 42.2641C22.1459 42.6182 21.9166 42.8475 21.5625 42.9516C21.1061 43.014 20.6477 43.0347 20.1875 43.0141C20.1875 43.3475 20.1875 43.6807 20.1875 44.0141C22.3129 44.035 24.4379 44.0141 26.5625 43.9516C25.723 42.3758 24.7439 40.8967 23.625 39.5141C22.9727 38.3007 22.7644 37.0091 23 35.6391C23.2079 34.7652 23.5204 33.932 23.9375 33.1391C23.5052 30.4842 23.4427 27.8176 23.75 25.1391C23.8259 23.955 23.9925 22.7883 24.25 21.6391C30.1356 16.4321 36.7814 15.2029 44.1875 17.9516C46.2139 18.7321 48.0471 19.8154 49.6875 21.2016C50.4744 22.1987 50.8701 23.3445 50.875 24.6391C51.019 27.4333 50.8315 30.2041 50.3125 32.9516C52.0116 35.4148 51.9491 37.8523 50.125 40.2641C49.2024 42.9237 47.8483 45.3196 46.0625 47.4516C48.2521 50.2037 50.7521 52.6412 53.5625 54.7641C53.6666 53.1823 53.7291 51.5991 53.75 50.0141C53.8541 49.7432 54.0416 49.5557 54.3125 49.4516C60.3125 49.3682 66.3125 49.3682 72.3125 49.4516C72.5404 49.5762 72.7487 49.7221 72.9375 49.8891ZM35.3125 18.5141C40.2674 18.2422 44.6631 19.6589 48.5 22.7641C48.6953 23.0712 48.8203 23.4046 48.875 23.7641C48.915 24.3295 48.9775 24.892 49.0625 25.4516C49.0209 25.5557 48.9791 25.66 48.9375 25.7641C45.9409 24.0145 42.7743 23.6187 39.4375 24.5766C38.0089 25.1451 36.6339 25.8118 35.3125 26.5766C33.2873 27.2912 31.2039 27.7287 29.0625 27.8891C27.8809 27.9228 26.86 27.5478 26 26.7641C25.8906 26.5925 25.8281 26.405 25.8125 26.2016C25.9241 25.2653 26.0282 24.3278 26.125 23.3891C26.1366 23.0757 26.2407 22.8048 26.4375 22.5766C29.0292 20.4144 31.9875 19.0602 35.3125 18.5141ZM42.0625 26.0141C44.6107 25.9538 46.8815 26.7038 48.875 28.2641C48.8421 29.9861 48.6546 31.6945 48.3125 33.3891C48.8245 34.1326 49.262 34.9243 49.625 35.7641C49.7393 36.4553 49.6559 37.122 49.375 37.7641C48.212 40.174 46.9202 42.5072 45.5 44.7641C44.3426 46.505 42.8634 47.9007 41.0625 48.9516C36.896 50.466 33.396 49.5077 30.5625 46.0766C31.4783 46.0141 32.3949 45.9933 33.3125 46.0141C33.2917 46.599 33.3126 47.1822 33.375 47.7641C33.5209 47.91 33.6666 48.0557 33.8125 48.2016C36.0209 48.285 38.2291 48.285 40.4375 48.2016C40.7084 48.0975 40.8959 47.91 41 47.6391C41.0834 45.8057 41.0834 43.9725 41 42.1391C40.8541 41.9932 40.7084 41.8475 40.5625 41.7016C38.3125 41.6182 36.0625 41.6182 33.8125 41.7016C33.6666 41.8475 33.5209 41.9932 33.375 42.1391C33.3126 42.7627 33.2917 43.3877 33.3125 44.0141C31.8953 44.035 30.4785 44.0141 29.0625 43.9516C28.0564 42.1258 26.9105 40.3967 25.625 38.7641C24.8814 37.6387 24.7981 36.4721 25.375 35.2641C25.625 34.8475 25.875 34.4307 26.125 34.0141C25.9729 32.6046 25.827 31.1878 25.6875 29.7641C25.7291 29.5975 25.7709 29.4307 25.8125 29.2641C27.841 30.0941 29.9244 30.2398 32.0625 29.7016C33.7083 29.3945 35.2915 28.8945 36.8125 28.2016C38.3866 27.0177 40.1366 26.2886 42.0625 26.0141ZM18.3125 30.6391C18.9792 30.6391 19.6458 30.6391 20.3125 30.6391C20.3125 34.0557 20.3125 37.4725 20.3125 40.8891C18.0745 41.2406 16.5953 40.3656 15.875 38.2641C15.7917 36.5557 15.7917 34.8475 15.875 33.1391C16.2939 31.9078 17.1064 31.0745 18.3125 30.6391ZM54.4375 30.6391C56.641 30.2466 58.1201 31.08 58.875 33.1391C58.9584 34.8891 58.9584 36.6391 58.875 38.3891C58.0874 40.3986 56.6081 41.232 54.4375 40.8891C54.4375 37.4725 54.4375 34.0557 54.4375 30.6391ZM35.3125 43.6391C36.5209 43.6391 37.7291 43.6391 38.9375 43.6391C38.9375 44.5141 38.9375 45.3891 38.9375 46.2641C37.7291 46.2641 36.5209 46.2641 35.3125 46.2641C35.4791 45.3891 35.4791 44.5141 35.3125 43.6391ZM30.4375 49.0141C34.2676 52.1656 38.3926 52.6031 42.8125 50.3266C43.4089 49.9343 43.9714 49.4968 44.5 49.0141C44.8725 49.4908 45.2682 49.9492 45.6875 50.3891C44.1968 51.2 42.6551 51.9291 41.0625 52.5766C38.4375 52.66 35.8125 52.66 33.1875 52.5766C31.8145 51.932 30.4813 51.2236 29.1875 50.4516C29.677 50.0253 30.0936 49.5462 30.4375 49.0141ZM55.6875 51.5141C60.7709 51.5141 65.8541 51.5141 70.9375 51.5141C70.9375 54.4307 70.9375 57.3475 70.9375 60.2641C67.5206 60.2432 64.1039 60.2641 60.6875 60.3266C60.125 60.7225 59.6459 61.2016 59.25 61.7641C59.3469 61.0606 59.076 60.5813 58.4375 60.3266C57.5218 60.2641 56.6051 60.2433 55.6875 60.2641C55.754 57.3518 55.754 54.4351 55.6875 51.5141ZM27.5625 52.1391C29.0281 52.8093 30.4865 53.5176 31.9375 54.2641C32.5149 55.3917 33.0566 56.5376 33.5625 57.7016C33.2251 59.3467 32.8709 60.9926 32.5 62.6391C29.871 59.9907 27.6003 57.0741 25.6875 53.8891C26.3404 53.3338 26.9654 52.7506 27.5625 52.1391ZM47.1875 52.1391C47.7497 52.6803 48.3331 53.2012 48.9375 53.7016C46.606 56.9507 44.0853 60.0548 41.375 63.0141C41.1305 61.3708 40.9014 59.725 40.6875 58.0766C41.0991 56.8568 41.5991 55.6693 42.1875 54.5141C43.8618 53.7185 45.5284 52.9268 47.1875 52.1391ZM34.4375 54.6391C36.2296 54.6182 38.0214 54.6391 39.8125 54.7016C39.5209 55.3266 39.2291 55.9516 38.9375 56.5766C37.7291 56.66 36.5209 56.66 35.3125 56.5766C35.0033 55.9373 34.7116 55.2916 34.4375 54.6391ZM23.8125 55.1391C23.937 55.1283 24.0411 55.1701 24.125 55.2641C26.7997 59.7316 30.154 63.6275 34.1875 66.9516C35.3896 67.9496 36.7646 68.3662 38.3125 68.2016C39.2311 67.7845 40.0645 67.2427 40.8125 66.5766C44.4109 63.0218 47.6818 59.2093 50.625 55.1391C51.5489 55.924 52.5281 56.6323 53.5625 57.2641C53.6299 58.7742 53.7341 60.2742 53.875 61.7641C53.9791 61.8682 54.0834 61.9725 54.1875 62.0766C55.1866 62.1391 56.1866 62.1598 57.1875 62.1391C57.1668 63.14 57.1875 64.14 57.25 65.1391C57.9017 65.7985 58.5685 65.7985 59.25 65.1391C59.9641 64.1903 60.6932 63.2528 61.4375 62.3266C61.9426 62.2232 62.4426 62.2441 62.9375 62.3891C63.9894 64.5136 64.4894 66.7636 64.4375 69.1391C46.6041 69.1391 28.7709 69.1391 10.9375 69.1391C10.507 64.8567 12.0903 61.5858 15.6875 59.3266C17.8026 58.4408 19.8859 57.4825 21.9375 56.4516C22.6145 56.0728 23.2395 55.6353 23.8125 55.1391ZM35.4375 58.6391C36.5209 58.6391 37.6041 58.6391 38.6875 58.6391C38.9336 60.7127 39.2253 62.7752 39.5625 64.8266C38.8838 65.4657 38.1129 65.9448 37.25 66.2641C36.068 65.9136 35.0889 65.2678 34.3125 64.3266C34.6959 62.4305 35.0709 60.5346 35.4375 58.6391Z" fill="#2C833D"/>
<path opacity="0.983" fill-rule="evenodd" clip-rule="evenodd" d="M57.1877 53.0141C61.2712 52.9932 65.3545 53.0141 69.4377 53.0766C69.9737 53.548 70.0778 54.1105 69.7502 54.7641C69.6038 54.9382 69.4163 55.0425 69.1877 55.0766C65.271 55.16 61.3543 55.16 57.4377 55.0766C56.7387 54.7764 56.5095 54.2555 56.7502 53.5141C56.9222 53.3635 57.0679 53.1969 57.1877 53.0141Z" fill="#2C833D"/>
<path opacity="0.983" fill-rule="evenodd" clip-rule="evenodd" d="M57.3127 56.5141C61.3545 56.4932 65.3962 56.5141 69.4377 56.5766C69.9737 57.048 70.0778 57.6105 69.7502 58.2641C69.6038 58.4382 69.4163 58.5425 69.1877 58.5766C65.271 58.66 61.3543 58.66 57.4377 58.5766C56.6823 58.2161 56.4948 57.6536 56.8752 56.8891C57.0183 56.7471 57.1642 56.6221 57.3127 56.5141Z" fill="#2C833D"/>
</g>
<defs>
<clipPath id="clip0_2009_2708">
<rect width="64" height="64" fill="white" transform="translate(9 9.2016)"/>
</clipPath>
</defs>
</svg>
