<svg width="75" height="76" viewBox="0 0 75 76" fill="none" xmlns="http://www.w3.org/2000/svg">
<g clip-path="url(#clip0_2009_2771)">
<path opacity="0.936" fill-rule="evenodd" clip-rule="evenodd" d="M74 46.4743C74 51.0154 74 55.5564 74 60.0974C73.6008 61.1562 72.8684 61.9129 71.8027 62.3679C69.9554 62.5303 68.0999 62.6525 66.2363 62.7341C65.157 66.2762 62.7645 67.8633 59.0586 67.4948C56.4358 66.8496 54.8245 65.2139 54.2246 62.5876C51.5879 62.5876 48.9512 62.5876 46.3145 62.5876C45.5563 65.7378 43.5542 67.3979 40.3086 67.5681C37.0641 67.3993 35.0623 65.7392 34.3027 62.5876C32.4961 62.5876 30.6894 62.5876 28.8828 62.5876C28.1246 65.7378 26.1226 67.3979 22.877 67.5681C19.6325 67.3993 17.6306 65.7392 16.8711 62.5876C13.0134 62.6121 9.15594 62.5876 5.29883 62.5144C4.79535 62.3525 4.42914 62.0351 4.2002 61.5622C2.476 56.3651 0.742593 51.1894 -1 46.0349C-1 45.2048 -1 44.3748 -1 43.5447C-0.718533 42.7864 -0.352322 42.054 0.0986328 41.3474C1.80762 39.0524 3.5166 36.7576 5.22559 34.4626C6.96153 33.8547 7.54747 34.4406 6.9834 36.2204C5.22559 38.5642 3.46777 40.9079 1.70996 43.2517C1.35485 43.9944 1.25719 44.7756 1.41699 45.5954C3.01959 50.4764 4.60651 55.3592 6.17773 60.2439C6.97977 60.329 7.73659 60.2313 8.44824 59.9509C11.6136 48.6243 14.763 37.2962 17.8965 25.9665C16.7724 25.9422 15.6493 25.9665 14.5273 26.0398C13.0004 28.1169 11.4379 30.1677 9.83984 32.1921C8.82293 32.5867 8.18817 32.245 7.93555 31.1667C8.03754 30.8894 8.15961 30.6209 8.30176 30.3611C9.71778 28.4568 11.1338 26.5525 12.5498 24.6482C12.8258 24.2257 13.192 23.9083 13.6484 23.696C26.1484 23.5983 38.6485 23.5983 51.1484 23.696C51.755 23.9119 52.17 24.3269 52.3936 24.9411C52.4668 27.4797 52.4913 30.0187 52.4668 32.5583C55.6899 32.5339 58.9125 32.5583 62.1348 32.6316C63.0523 32.7606 63.8092 33.1758 64.4053 33.8767C64.8865 34.6024 65.4236 35.2859 66.0166 35.9275C66.5539 37.0353 66.2365 37.719 65.0645 37.9782C64.8538 37.9462 64.6585 37.8729 64.4785 37.7585C63.8126 37.0441 63.2022 36.2872 62.6475 35.488C62.4162 35.2623 62.1475 35.0913 61.8418 34.9753C60.7199 34.9021 59.5968 34.8778 58.4727 34.9021C58.4482 38.3204 58.4727 41.7384 58.5459 45.156C58.6313 45.376 58.7533 45.5713 58.9121 45.7419C62.861 45.9115 66.8161 45.9359 70.7773 45.8152C69.525 44.319 68.3289 42.7809 67.1885 41.2009C67.0446 40.3169 67.4108 39.7797 68.2871 39.5896C68.6548 39.6384 68.9722 39.7848 69.2393 40.029C70.6553 41.8356 72.0712 43.6424 73.4873 45.4489C73.665 45.8042 73.8358 46.1461 74 46.4743ZM20.3867 25.9665C30.2989 25.9665 40.2109 25.9665 50.123 25.9665C50.123 37.3923 50.123 48.8181 50.123 60.2439C48.8535 60.2439 47.584 60.2439 46.3145 60.2439C45.5091 57.1756 43.5072 55.5154 40.3086 55.2634C37.2058 55.5364 35.2039 57.1478 34.3027 60.0974C32.4988 60.2437 30.692 60.2925 28.8828 60.2439C28.0774 57.1756 26.0756 55.5154 22.877 55.2634C19.7778 55.5321 17.7759 57.1434 16.8711 60.0974C14.8716 60.2437 12.8696 60.2927 10.8652 60.2439C14.039 48.8182 17.2128 37.3925 20.3867 25.9665ZM52.4668 34.9021C53.6875 34.9021 54.9083 34.9021 56.1289 34.9021C56.1044 38.418 56.1289 41.9336 56.2021 45.4489C56.393 46.8343 57.1499 47.7376 58.4727 48.1589C62.9158 48.2322 67.3591 48.2566 71.8027 48.2322C71.8027 48.8669 71.8027 49.5017 71.8027 50.1364C70.3225 50.0707 68.8577 50.1439 67.4082 50.3562C67.0698 50.596 66.8501 50.9134 66.749 51.3083C66.6513 53.0661 66.6513 54.8239 66.749 56.5818C66.8501 56.9767 67.0698 57.2941 67.4082 57.5339C68.8577 57.7462 70.3225 57.8194 71.8027 57.7536C71.8256 58.3516 71.7523 58.9375 71.583 59.5114C71.461 59.8289 71.2413 60.0486 70.9238 60.1706C69.3591 60.2925 67.7965 60.2682 66.2363 60.0974C64.6423 55.9069 61.7126 54.5153 57.4473 55.9226C55.7154 56.8712 54.6412 58.3116 54.2246 60.2439C53.6387 60.2439 53.0527 60.2439 52.4668 60.2439C52.4668 51.7966 52.4668 43.3494 52.4668 34.9021ZM69.0195 52.3337C69.9472 52.3337 70.875 52.3337 71.8027 52.3337C71.8027 53.3591 71.8027 54.3845 71.8027 55.4099C70.875 55.4099 69.9472 55.4099 69.0195 55.4099C69.0195 54.3845 69.0195 53.3591 69.0195 52.3337ZM22.584 57.6072C25.4067 57.8172 26.7494 59.3308 26.6123 62.1482C25.9701 64.4102 24.4808 65.4111 22.1445 65.1511C19.716 64.3812 18.7638 62.7455 19.2881 60.2439C19.9443 58.7792 21.043 57.9003 22.584 57.6072ZM40.0156 57.6072C42.8384 57.8172 44.1811 59.3308 44.0439 62.1482C43.3607 64.4554 41.8227 65.4564 39.4297 65.1511C36.6871 64.0032 35.9302 62.0746 37.1592 59.365C37.8816 58.3823 38.8338 57.7964 40.0156 57.6072ZM59.9375 57.6072C62.9185 57.9738 64.2124 59.6339 63.8193 62.5876C62.5634 65.1909 60.6346 65.8501 58.0332 64.5652C56.1671 62.8718 55.9474 60.992 57.374 58.9255C58.1107 58.2278 58.9651 57.7884 59.9375 57.6072Z" fill="#2C833D"/>
<g clip-path="url(#clip1_2009_2771)">
<path opacity="0.916" fill-rule="evenodd" clip-rule="evenodd" d="M35.6428 31.3747C37.5839 31.8194 39.2382 32.7647 40.6057 34.2106C40.7197 34.6837 40.5406 34.8484 40.0686 34.7048C38.8157 33.3974 37.3118 32.4951 35.5568 31.9977C35.369 31.7575 35.3976 31.5498 35.6428 31.3747Z" fill="#2C833D"/>
<path opacity="0.925" fill-rule="evenodd" clip-rule="evenodd" d="M43.9782 40.613C43.9782 40.7276 43.9782 40.8421 43.9782 40.9567C43.2145 41.7132 42.4411 42.4652 41.6579 43.2126C41.4932 43.3001 41.3356 43.2858 41.1853 43.1696C40.462 42.4177 39.7386 41.6657 39.0153 40.9138C38.9048 40.5513 39.0409 40.3723 39.4236 40.3767C40.0001 40.9102 40.5658 41.4616 41.1208 42.031C41.2334 38.6964 39.8943 36.1398 37.1032 34.361C35.7719 33.6022 34.3396 33.2298 32.8064 33.2439C32.4859 33.1097 32.4286 32.902 32.6345 32.6208C36.0868 32.5243 38.7437 33.9279 40.6052 36.8317C41.5407 38.4398 41.9561 40.1728 41.8513 42.031C42.3699 41.5176 42.8927 41.0091 43.4196 40.5056C43.6372 40.3963 43.8233 40.4322 43.9782 40.613Z" fill="#2C833D"/>
<path opacity="0.919" fill-rule="evenodd" clip-rule="evenodd" d="M31.3889 32.6638C31.6914 32.6069 31.8632 32.7287 31.9045 33.029C31.8919 33.1546 31.8345 33.2549 31.7327 33.3298C30.3752 33.5791 29.1434 34.109 28.0373 34.9196C27.6022 34.9423 27.4661 34.749 27.6291 34.3396C28.7559 33.4938 30.0091 32.9353 31.3889 32.6638Z" fill="#2C833D"/>
<path opacity="0.928" fill-rule="evenodd" clip-rule="evenodd" d="M32.8067 34.0817C32.9544 34.0855 33.0762 34.1428 33.1719 34.2536C33.2005 34.7406 33.2005 35.2276 33.1719 35.7145C32.938 35.9483 32.7232 35.934 32.5274 35.6716C32.4987 35.2132 32.4987 34.7549 32.5274 34.2966C32.5962 34.1876 32.6893 34.116 32.8067 34.0817Z" fill="#2C833D"/>
<path opacity="0.901" fill-rule="evenodd" clip-rule="evenodd" d="M29.9702 34.6833C30.0908 34.6971 30.1982 34.7401 30.2925 34.8122C30.4893 35.2128 30.6683 35.621 30.8296 36.0368C30.6699 36.4554 30.4336 36.5056 30.1206 36.1872C29.9892 35.8528 29.846 35.5233 29.691 35.1989C29.63 34.9388 29.723 34.7669 29.9702 34.6833Z" fill="#2C833D"/>
<path opacity="0.904" fill-rule="evenodd" clip-rule="evenodd" d="M35.6426 34.6833C35.8944 34.6916 36.0376 34.8205 36.0723 35.07C35.905 35.4761 35.726 35.8772 35.5352 36.2731C35.304 36.4588 35.1035 36.4302 34.9336 36.1872C34.9049 36.0869 34.9049 35.9867 34.9336 35.8864C35.0912 35.5427 35.2487 35.1989 35.4063 34.8552C35.4707 34.7706 35.5495 34.7133 35.6426 34.6833Z" fill="#2C833D"/>
<path opacity="0.898" fill-rule="evenodd" clip-rule="evenodd" d="M26.7485 35.113C27.1793 35.078 27.3297 35.2642 27.1997 35.6716C26.8594 36.0116 26.5515 36.3769 26.2758 36.7673C26.0131 36.898 25.8197 36.8336 25.6958 36.5739C25.675 36.4702 25.6893 36.37 25.7387 36.2731C26.0387 35.8516 26.3753 35.4649 26.7485 35.113Z" fill="#2C833D"/>
<path opacity="0.9" fill-rule="evenodd" clip-rule="evenodd" d="M41.2715 35.4567C41.4068 35.4443 41.5358 35.4658 41.6583 35.5212C41.9074 35.8405 42.0936 36.1914 42.2169 36.5739C42.1615 36.9134 41.9752 37.0065 41.6583 36.8532C41.4846 36.5703 41.3055 36.291 41.1211 36.0153C41.0213 35.7862 41.0714 35.5999 41.2715 35.4567Z" fill="#2C833D"/>
<path opacity="0.904" fill-rule="evenodd" clip-rule="evenodd" d="M27.5648 36.402C27.7064 36.3917 27.8353 36.4274 27.9515 36.5094C28.2432 36.7595 28.5225 37.0245 28.7894 37.3044C28.8539 37.6982 28.6892 37.8629 28.2953 37.7985C27.9873 37.5192 27.6794 37.2399 27.3715 36.9606C27.2658 36.7138 27.3303 36.5277 27.5648 36.402Z" fill="#2C833D"/>
<path opacity="0.912" fill-rule="evenodd" clip-rule="evenodd" d="M37.8767 36.402C38.3339 36.4284 38.4556 36.6433 38.242 37.0466C36.5304 38.7581 34.8188 40.4698 33.1072 42.1813C32.921 42.3246 32.7348 42.3246 32.5486 42.1813C31.5949 41.242 30.6567 40.2895 29.7341 39.3239C29.6797 38.8913 29.8587 38.7409 30.2713 38.8727C31.1235 39.7249 31.9757 40.5772 32.8279 41.4294C34.5063 39.7438 36.1893 38.068 37.8767 36.402Z" fill="#2C833D"/>
<path opacity="0.875" fill-rule="evenodd" clip-rule="evenodd" d="M25.2441 37.2614C25.5058 37.2412 25.6633 37.3558 25.7168 37.6052C25.6797 37.8441 25.5794 38.0518 25.416 38.2282C25.112 38.3627 24.9258 38.2696 24.8574 37.9489C24.899 37.6648 25.0279 37.4357 25.2441 37.2614Z" fill="#2C833D"/>
<path opacity="0.913" fill-rule="evenodd" clip-rule="evenodd" d="M26.0601 38.9372C26.5319 39.0013 26.9903 39.123 27.4351 39.3024C27.7014 39.6173 27.637 39.8393 27.2417 39.9684C26.848 39.8468 26.4541 39.725 26.0601 39.6032C25.8042 39.3854 25.8042 39.1633 26.0601 38.9372Z" fill="#2C833D"/>
<path opacity="0.902" fill-rule="evenodd" clip-rule="evenodd" d="M39.2952 38.9372C39.6148 38.8483 39.801 38.9629 39.8538 39.281C39.8514 39.3932 39.8084 39.4863 39.7249 39.5603C39.2802 39.7516 38.8218 39.8805 38.3499 39.947C38.2023 39.8813 38.1307 39.7667 38.135 39.6032C38.1311 39.4823 38.174 39.3821 38.2639 39.3024C38.6168 39.1921 38.9605 39.0703 39.2952 38.9372Z" fill="#2C833D"/>
<path opacity="0.928" fill-rule="evenodd" clip-rule="evenodd" d="M21.9785 42.2028C21.9785 42.0882 21.9785 41.9737 21.9785 41.8591C22.7422 41.1026 23.5157 40.3507 24.2988 39.6032C24.465 39.5121 24.6225 39.5265 24.7715 39.6462C25.4948 40.3981 26.2181 41.1501 26.9414 41.902C27.0564 42.2018 26.9562 42.388 26.6406 42.4606C26.5409 42.4431 26.4478 42.4072 26.3613 42.3532C25.8828 41.8317 25.3886 41.3232 24.8789 40.8278C24.7328 44.0375 25.986 46.5369 28.6387 48.3259C30.0627 49.1833 31.6095 49.613 33.2793 49.6149C33.5085 49.8298 33.5085 50.0446 33.2793 50.2595C29.7591 50.2795 27.0878 48.7971 25.2656 45.8122C24.4121 44.2458 24.0254 42.57 24.1055 40.7849C23.5958 41.3089 23.073 41.8174 22.5371 42.3102C22.3159 42.4191 22.1297 42.3833 21.9785 42.2028Z" fill="#2C833D"/>
<path opacity="0.908" fill-rule="evenodd" clip-rule="evenodd" d="M27.1777 42.8903C27.4777 42.9108 27.6138 43.0683 27.5859 43.363C27.5522 43.4397 27.5021 43.5042 27.4355 43.5563C27.032 43.7099 26.6238 43.846 26.2109 43.9645C25.9834 43.9232 25.8617 43.7872 25.8457 43.5563C25.8717 43.4503 25.929 43.3644 26.0176 43.2985C26.4073 43.1567 26.7941 43.0207 27.1777 42.8903Z" fill="#2C833D"/>
<path opacity="0.908" fill-rule="evenodd" clip-rule="evenodd" d="M38.3922 42.8903C38.8456 42.993 39.2895 43.129 39.7242 43.2985C39.944 43.6254 39.8652 43.8474 39.4879 43.9645C39.0808 43.8288 38.6726 43.6928 38.2633 43.5563C38.1445 43.4276 38.1087 43.2773 38.1559 43.1052C38.2034 42.9929 38.2822 42.9213 38.3922 42.8903Z" fill="#2C833D"/>
<path opacity="0.887" fill-rule="evenodd" clip-rule="evenodd" d="M40.7129 44.5231C41.0486 44.5635 41.1703 44.7497 41.0781 45.0817C41.0156 45.2283 40.9368 45.3644 40.8418 45.4899C40.5158 45.6361 40.3153 45.5358 40.2402 45.1891C40.3022 45.0037 40.3809 44.8247 40.4766 44.652C40.5572 44.6044 40.6359 44.5614 40.7129 44.5231Z" fill="#2C833D"/>
<path opacity="0.899" fill-rule="evenodd" clip-rule="evenodd" d="M28.3379 45.0388C28.7097 45.0167 28.8601 45.1885 28.7891 45.5544C28.4937 45.8785 28.1714 46.1721 27.8223 46.4352C27.4051 46.4819 27.2547 46.3029 27.3711 45.8981C27.689 45.6015 28.0112 45.315 28.3379 45.0388Z" fill="#2C833D"/>
<path opacity="0.901" fill-rule="evenodd" clip-rule="evenodd" d="M37.1033 45.0388C37.2386 45.0263 37.3675 45.0478 37.49 45.1032C37.7686 45.3459 38.0408 45.5966 38.3064 45.8552C38.4786 46.1696 38.3926 46.3701 38.0486 46.4567C37.9713 46.4534 37.8997 46.4319 37.8338 46.3923C37.5402 46.1273 37.2465 45.8623 36.9529 45.5973C36.839 45.3627 36.8891 45.1765 37.1033 45.0388Z" fill="#2C833D"/>
<path opacity="0.904" fill-rule="evenodd" clip-rule="evenodd" d="M39.8534 45.9841C40.2488 46.0155 40.3705 46.2161 40.2187 46.5856C39.9506 46.9564 39.657 47.3073 39.3378 47.6384C38.8851 47.8101 38.6917 47.6597 38.7577 47.1872C39.0765 46.8685 39.363 46.5248 39.6171 46.1559C39.6815 46.0713 39.7603 46.0141 39.8534 45.9841Z" fill="#2C833D"/>
<path opacity="0.886" fill-rule="evenodd" clip-rule="evenodd" d="M24.4279 46.3708C24.5166 46.3788 24.6025 46.4003 24.6857 46.4352C24.9443 46.6584 25.066 46.9377 25.0509 47.2731C24.8773 47.5036 24.6768 47.5322 24.4494 47.3591C24.3491 47.2015 24.2488 47.044 24.1486 46.8864C24.0969 46.6314 24.19 46.4595 24.4279 46.3708Z" fill="#2C833D"/>
<path opacity="0.902" fill-rule="evenodd" clip-rule="evenodd" d="M30.4001 46.4567C30.6519 46.4651 30.7951 46.594 30.8298 46.8434C30.6575 47.2826 30.457 47.7051 30.2282 48.111C29.8225 48.2271 29.6435 48.0767 29.6911 47.6599C29.8487 47.3161 30.0062 46.9724 30.1638 46.6286C30.2282 46.544 30.307 46.4867 30.4001 46.4567Z" fill="#2C833D"/>
<path opacity="0.902" fill-rule="evenodd" clip-rule="evenodd" d="M35.2124 46.4567C35.333 46.4706 35.4404 46.5135 35.5347 46.5856C35.7255 46.9816 35.9046 47.3827 36.0718 47.7888C36.0309 48.0663 35.8734 48.188 35.5992 48.154C35.4944 48.1207 35.4155 48.0563 35.3628 47.9606C35.2279 47.6277 35.0847 47.2982 34.9331 46.9724C34.8722 46.7123 34.9652 46.5404 35.2124 46.4567Z" fill="#2C833D"/>
<path opacity="0.928" fill-rule="evenodd" clip-rule="evenodd" d="M32.7637 46.9724C32.9274 46.9672 33.0635 47.0244 33.1719 47.1442C33.2005 47.6312 33.2005 48.1182 33.1719 48.6052C32.9399 48.8394 32.725 48.8251 32.5274 48.5622C32.4987 48.1039 32.4987 47.6456 32.5274 47.1872C32.5878 47.0908 32.6665 47.0192 32.7637 46.9724Z" fill="#2C833D"/>
<path opacity="0.921" fill-rule="evenodd" clip-rule="evenodd" d="M38.0058 47.8747C38.3057 47.8951 38.4418 48.0527 38.414 48.3474C38.3662 48.4667 38.2874 48.5598 38.1776 48.6266C37.058 49.4202 35.8191 49.9286 34.4608 50.152C34.1351 50.1324 34.0206 49.9606 34.1171 49.6364C34.1672 49.5863 34.2173 49.5362 34.2675 49.486C35.6432 49.2273 36.8893 48.6902 38.0058 47.8747Z" fill="#2C833D"/>
<path opacity="0.907" fill-rule="evenodd" clip-rule="evenodd" d="M25.7172 48.1325C25.8383 48.1217 25.9529 48.1431 26.0609 48.1969C26.387 48.4441 26.6592 48.7377 26.8773 49.0778C26.8128 49.3825 26.6266 49.49 26.3187 49.4001C26.0408 49.1651 25.7758 48.9145 25.5238 48.6481C25.4583 48.422 25.5227 48.2502 25.7172 48.1325Z" fill="#2C833D"/>
<path opacity="0.926" fill-rule="evenodd" clip-rule="evenodd" d="M27.8225 49.7653C27.9096 49.7584 27.9955 49.7655 28.0803 49.7868C29.6648 50.6807 31.3692 51.139 33.1936 51.1618C33.4793 51.3785 33.4793 51.5934 33.1936 51.8063C31.2414 51.859 29.4223 51.3935 27.7366 50.4099C27.5486 50.1643 27.5773 49.9494 27.8225 49.7653Z" fill="#2C833D"/>
</g>
</g>
<defs>
<clipPath id="clip0_2009_2771">
<rect width="75" height="75.1938" fill="white" transform="translate(0 0.0439453)"/>
</clipPath>
<clipPath id="clip1_2009_2771">
<rect width="22" height="22" fill="white" transform="translate(22 30.6227)"/>
</clipPath>
</defs>
</svg>
