<svg width="57" height="58" viewBox="0 0 57 58" fill="none" xmlns="http://www.w3.org/2000/svg">
<g clip-path="url(#clip0_2016_49)">
<path opacity="0.944" fill-rule="evenodd" clip-rule="evenodd" d="M24.8823 1.23511C27.74 1.21655 30.5973 1.23511 33.4546 1.29077C35.1435 1.60974 36.3311 2.53748 37.0171 4.07397C36.7738 5.12087 36.1429 5.45485 35.1245 5.07593C34.6126 4.37858 33.9446 3.89616 33.1206 3.62866C30.6334 3.53591 28.1471 3.55447 25.6616 3.68432C28.7602 9.06518 31.8589 14.4461 34.9575 19.8269C35.1901 20.3071 35.1344 20.7524 34.7905 21.1628C34.1969 21.6083 33.5661 21.9979 32.8979 22.3318C35.9341 23.1651 38.9771 23.9629 42.0268 24.7253C42.8024 21.7144 43.5631 18.7085 44.3091 15.7078C43.8544 16.0001 43.3906 16.2784 42.9175 16.5427C42.495 16.6359 42.0868 16.5988 41.6929 16.4314C40.9548 15.3948 40.3054 14.3 39.7446 13.1472C39.5776 11.9783 40.0786 11.4773 41.2475 11.6443C41.484 11.7692 41.6881 11.9362 41.8598 12.1453C42.1583 12.7435 42.5109 13.3002 42.9175 13.8152C44.0036 13.1609 45.1169 12.5672 46.2573 12.0339C47.013 12.1005 47.3841 12.5087 47.3706 13.2585C46.2594 17.7615 45.0905 22.2519 43.8638 26.7292C43.6197 27.1487 43.2486 27.3714 42.7505 27.3972C38.1909 26.1989 33.6449 24.9557 29.1128 23.6677C28.6381 23.2037 28.5453 22.6655 28.8345 22.0535C29.9601 21.3147 31.092 20.5911 32.23 19.8826C31.1962 18.0936 30.1756 16.2938 29.1684 14.4832C28.0181 16.4871 26.8676 18.491 25.7173 20.4949C25.0612 21.0618 24.3748 21.0803 23.6577 20.5505C20.884 18.9503 18.1192 17.336 15.3638 15.7078C15.0458 15.247 15.0086 14.7646 15.2524 14.2605C17.3586 10.6791 19.4368 7.07948 21.4868 3.46167C22.3723 2.33344 23.5041 1.59124 24.8823 1.23511ZM23.435 4.79761C24.9355 7.20309 26.3828 9.65231 27.7768 12.1453C26.636 14.1674 25.467 16.1713 24.27 18.157C22.127 16.9279 19.9933 15.6847 17.8686 14.4275C19.7676 11.2418 21.6231 8.03181 23.435 4.79761Z" fill="#2C833D"/>
<path opacity="0.881" fill-rule="evenodd" clip-rule="evenodd" d="M37.9072 7.24687C39.3705 7.2407 39.7972 7.90867 39.1875 9.25077C38.1393 9.84183 37.4529 9.56351 37.1279 8.41581C37.1918 7.88931 37.4516 7.49966 37.9072 7.24687Z" fill="#2C833D"/>
<path opacity="0.947" fill-rule="evenodd" clip-rule="evenodd" d="M-0.0556641 41.7585C-0.0556641 41.0163 -0.0556641 40.2742 -0.0556641 39.5319C0.155209 38.8861 0.43353 38.2552 0.779297 37.6394C2.63928 34.4203 4.5133 31.2103 6.40137 28.0095C5.36231 27.4158 4.32324 26.822 3.28418 26.2282C2.73427 25.4001 2.88271 24.7321 3.72949 24.2243C8.0405 23.0966 12.3452 21.9461 16.6436 20.7732C17.3205 20.5663 17.8215 20.7704 18.1465 21.3855C19.3612 25.8547 20.5673 30.3263 21.7646 34.8005C21.596 35.7478 21.0393 36.119 20.0947 35.9138C19.028 35.3155 17.9704 34.7032 16.9219 34.0769C15.8783 35.8858 14.8207 37.6857 13.749 39.4763C16.1612 39.5134 18.5732 39.5505 20.9854 39.5876C21.3934 39.7733 21.6346 40.0887 21.709 40.5339C21.7832 43.9108 21.7832 47.2878 21.709 50.6648C21.6246 51.1571 21.3463 51.4724 20.874 51.611C16.4952 51.6853 12.1162 51.6853 7.7373 51.611C6.18204 51.3535 4.93887 50.5927 4.00781 49.3288C2.97609 47.4445 1.89991 45.5891 0.779297 43.7624C0.42174 43.1136 0.14342 42.4456 -0.0556641 41.7585ZM15.7529 23.3894C15.9385 23.3894 16.124 23.3894 16.3096 23.3894C17.0364 26.334 17.8157 29.2656 18.6475 32.1843C18.6104 32.2214 18.5732 32.2585 18.5361 32.2956C17.8692 31.8692 17.1641 31.5352 16.4209 31.2937C16.0144 31.3207 15.699 31.5063 15.4746 31.8503C12.3934 37.2717 9.25765 42.6525 6.06738 47.9929C4.71167 45.8761 3.46852 43.6867 2.33789 41.4245C2.1921 40.6039 2.30342 39.8246 2.67188 39.0866C4.78711 35.4499 6.90234 31.8132 9.01758 28.1765C9.22295 27.7709 9.22295 27.3628 9.01758 26.9519C8.47283 26.5187 7.89764 26.129 7.29199 25.7829C10.1241 24.9825 12.9445 24.1847 15.7529 23.3894ZM12.4131 41.8698C14.751 41.8698 17.0889 41.8698 19.4268 41.8698C19.4268 44.3561 19.4268 46.8425 19.4268 49.3288C15.678 49.3659 11.9299 49.3288 8.18262 49.2175C9.59408 46.7653 11.0042 44.3161 12.4131 41.8698Z" fill="#2C833D"/>
<path opacity="0.951" fill-rule="evenodd" clip-rule="evenodd" d="M56.9446 40.4226C56.9446 41.1648 56.9446 41.9069 56.9446 42.6491C56.7766 43.1696 56.5726 43.6891 56.3323 44.2077C55.1077 46.2859 53.8831 48.364 52.6585 50.4421C51.8176 51.4468 50.76 52.0963 49.4856 52.3904C45.2553 52.446 41.0248 52.4646 36.7942 52.446C36.8128 53.7453 36.7942 55.0442 36.7386 56.3425C36.3268 56.8738 35.7886 57.0408 35.1243 56.8435C31.8432 53.6737 28.5961 50.4638 25.3831 47.2136C24.9349 46.6812 24.8978 46.1246 25.2718 45.5437C28.5189 42.2966 31.7659 39.0496 35.013 35.8025C35.7379 35.4804 36.3132 35.6474 36.7386 36.3034C36.7942 37.6388 36.8128 38.9748 36.7942 40.3113C38.8737 40.3483 40.9518 40.3113 43.0286 40.1999C41.8967 38.2331 40.765 36.2664 39.6331 34.2995C39.5316 33.8596 39.6058 33.4513 39.8557 33.0749C42.6112 31.4466 45.3759 29.8324 48.1497 28.2322C49.06 27.6054 49.8207 27.7353 50.4319 28.6218C52.3542 32.0646 54.3211 35.4787 56.3323 38.864C56.5726 39.3827 56.7766 39.9021 56.9446 40.4226ZM48.7063 30.6257C50.6661 33.7828 52.5587 36.9928 54.3841 40.2556C51.5266 40.3298 48.6693 40.3298 45.8118 40.2556C44.6614 38.2888 43.511 36.322 42.3606 34.3552C44.4829 33.1091 46.5981 31.8659 48.7063 30.6257ZM34.345 39.7546C34.4183 40.5208 34.511 41.3001 34.6233 42.0925C34.7532 42.2966 34.9202 42.4636 35.1243 42.5935C41.5446 42.6121 47.9644 42.6677 54.3841 42.7605C53.2151 44.8015 52.0462 46.8425 50.8772 48.8835C50.2605 49.6465 49.4627 50.0733 48.4837 50.1638C44.0305 50.2009 39.5774 50.2381 35.1243 50.2751C34.9202 50.405 34.7532 50.572 34.6233 50.7761C34.4965 51.4369 34.4224 52.1049 34.4007 52.78C32.2298 50.6091 30.0589 48.4382 27.888 46.2673C30.0628 44.1111 32.2151 41.9402 34.345 39.7546Z" fill="#2C833D"/>
</g>
<defs>
<clipPath id="clip0_2016_49">
<rect width="57" height="57" fill="white" transform="translate(0 0.622803)"/>
</clipPath>
</defs>
</svg>
