<svg width="61" height="62" viewBox="0 0 61 62" fill="none" xmlns="http://www.w3.org/2000/svg">
<g clip-path="url(#clip0_2015_25)">
<path opacity="0.958" fill-rule="evenodd" clip-rule="evenodd" d="M40.3291 0.563232C41.6397 0.563232 42.9502 0.563232 44.2608 0.563232C46.2015 1.30017 47.1744 2.72985 47.1797 4.85229C47.678 5.22059 48.234 5.49858 48.8477 5.68628C49.4909 5.25516 50.1462 4.83816 50.8135 4.4353C52.1961 3.94151 53.467 4.14008 54.626 5.03101C55.4042 5.76938 56.139 6.54379 56.8301 7.35425C57.4214 8.43061 57.5009 9.5426 57.0684 10.6902C56.6656 11.3575 56.2486 12.0128 55.8174 12.656C55.9995 13.1591 56.1981 13.6556 56.4131 14.1453C57.3256 14.3777 58.2391 14.6358 59.1534 14.9197C60 15.4668 60.5957 16.2014 60.9405 17.1238C60.9405 18.474 60.9405 19.8243 60.9405 21.1746C60.5845 22.3452 59.8298 23.1593 58.6768 23.6169C57.9305 23.8074 57.176 23.9465 56.4131 24.0339C56.2336 24.5728 56.035 25.1089 55.8174 25.6423C56.1496 26.2467 56.5268 26.8225 56.9493 27.3699C57.5539 28.6808 57.4744 29.9516 56.711 31.1824C55.9366 31.9568 55.1621 32.7312 54.3877 33.5056C53.2203 34.2219 51.9891 34.341 50.6944 33.863C50.0428 33.4695 49.4074 33.0525 48.7881 32.6121C48.2956 32.882 47.7794 33.0805 47.2393 33.2078C47.1848 36.4398 45.5565 37.9886 42.3545 37.8542C40.269 38.1324 38.7797 37.3381 37.8868 35.4714C37.7278 34.7556 37.5689 34.0408 37.4102 33.3269C36.8829 33.0733 36.3467 32.835 35.8018 32.6121C35.0173 33.2626 34.1436 33.7589 33.1807 34.1013C32.3091 34.2373 31.4751 34.1181 30.6787 33.7439C29.3279 32.8304 28.2756 31.6589 27.5215 30.2292C27.2081 29.1459 27.3272 28.1133 27.8789 27.1316C28.1934 26.6385 28.5309 26.1619 28.8916 25.7019C28.6732 25.1857 28.4547 24.6693 28.2364 24.1531C27.2929 23.9404 26.3597 23.6822 25.4366 23.3787C24.6309 22.8908 24.0948 22.1958 23.8282 21.2937C23.6452 20.0687 23.6054 18.8376 23.709 17.6003C23.9512 16.3261 24.6463 15.3928 25.794 14.8005C26.5902 14.6018 27.3845 14.4032 28.1768 14.2048C28.4382 13.6986 28.6765 13.1824 28.8916 12.656C28.1931 11.8746 27.6968 10.981 27.4024 9.97534C27.2247 8.93922 27.4233 7.9861 27.9981 7.11597C28.7725 6.34155 29.5469 5.56714 30.3213 4.79272C31.325 4.15618 32.3972 3.99733 33.5381 4.31616C34.3401 4.72702 35.1145 5.18372 35.8614 5.68628C36.3626 5.49937 36.8589 5.3008 37.3506 5.09058C37.5546 4.34473 37.7333 3.59018 37.8868 2.8269C38.3444 1.67383 39.1585 0.919272 40.3291 0.563232ZM41.2823 3.66089C42.0439 3.62599 42.7986 3.6657 43.5459 3.78003C43.8706 4.97055 44.2081 6.16196 44.5586 7.35425C45.8034 7.92874 47.0544 8.5046 48.3116 9.08179C48.5326 9.13208 48.7511 9.19165 48.9668 9.2605C50.0572 8.88531 51.0302 8.30947 51.8858 7.53296C52.0358 7.41597 52.1946 7.37627 52.3623 7.41382C52.9797 8.01127 53.5754 8.62684 54.1494 9.2605C53.6824 9.99612 53.186 10.711 52.6602 11.405C52.4577 11.7585 52.3186 12.1357 52.2432 12.5369C52.8612 13.8726 53.3973 15.2427 53.8516 16.6472C54.1645 16.9726 54.5418 17.191 54.9834 17.3025C55.8666 17.443 56.7403 17.6217 57.6045 17.8386C57.687 17.9012 57.7465 17.9806 57.7832 18.0769C57.8627 18.7917 57.8627 19.5066 57.7832 20.2214C57.7387 20.3306 57.6791 20.4299 57.6045 20.5193C56.5294 20.7448 55.4571 20.9831 54.3877 21.2341C54.0998 21.4323 53.8814 21.6903 53.7325 22.0085C53.2518 23.3071 52.7554 24.5977 52.2432 25.8806C52.3152 26.1885 52.4144 26.4863 52.541 26.7742C53.0918 27.5382 53.628 28.3126 54.1494 29.0974C53.6769 29.6892 53.1607 30.2452 52.6006 30.7654C52.4167 30.9068 52.2181 30.9465 52.0049 30.8845C51.2106 30.3285 50.4164 29.7726 49.6221 29.2166C49.0948 29.1223 48.5786 29.1621 48.0733 29.3357C47.0893 29.8886 46.0568 30.3255 44.9756 30.6462C44.7124 30.8694 44.4941 31.1276 44.3203 31.4207C44.109 32.4111 43.9104 33.4039 43.7246 34.3992C43.6353 34.4738 43.5359 34.5333 43.4268 34.5779C42.6723 34.6573 41.9176 34.6573 41.1631 34.5779C41.1035 34.5183 41.044 34.4587 40.9844 34.3992C40.7603 33.452 40.5618 32.4989 40.3887 31.5398C40.2623 31.175 40.0439 30.8771 39.7334 30.6462C38.5336 30.286 37.3818 29.8094 36.2784 29.2166C35.8813 29.1371 35.484 29.1371 35.0869 29.2166C34.3117 29.7034 33.5572 30.2197 32.8233 30.7654C32.6393 30.9068 32.4407 30.9465 32.2276 30.8845C31.6264 30.3232 31.0704 29.7275 30.5596 29.0974C31.011 28.3338 31.5075 27.5991 32.0489 26.8933C32.3317 26.3698 32.4112 25.8139 32.2871 25.2253C31.6943 24.1219 31.2177 22.9701 30.8575 21.7703C30.6787 21.5916 30.5 21.4128 30.3213 21.2341C29.2519 20.9831 28.1796 20.7448 27.1045 20.5193C27.045 20.4597 26.9854 20.4001 26.9258 20.3406C26.8463 19.5861 26.8463 18.8314 26.9258 18.0769C26.9704 17.9678 27.0299 17.8684 27.1045 17.7791C28.0998 17.5933 29.0926 17.3947 30.083 17.1833C30.3761 17.0096 30.6343 16.7913 30.8575 16.5281C31.2354 15.3355 31.7119 14.1839 32.2871 13.073C32.3666 12.6759 32.3666 12.2787 32.2871 11.8816C31.7311 11.0873 31.1752 10.2931 30.6192 9.49878C30.5572 9.28565 30.5969 9.08708 30.7383 8.90308C31.2585 8.34303 31.8145 7.82676 32.4063 7.35425C33.1719 7.80642 33.9066 8.30283 34.6104 8.84351C34.9287 9.02905 35.2663 9.16804 35.6231 9.2605C36.906 8.74829 38.1966 8.25186 39.4952 7.77124C39.8134 7.62231 40.0714 7.40389 40.2696 7.11597C40.5443 6.17931 40.7428 5.22618 40.8653 4.25659C40.8959 3.96988 41.0349 3.77131 41.2823 3.66089Z" fill="#2C833D"/>
<path opacity="0.958" fill-rule="evenodd" clip-rule="evenodd" d="M25.4365 61.5632C23.8877 61.5632 22.3389 61.5632 20.79 61.5632C19.2443 61.0698 18.2316 60.0372 17.752 58.4656C17.6129 57.7108 17.4739 56.9563 17.335 56.2019C17.2971 56.0653 17.2177 55.9659 17.0967 55.9041C16.3416 55.6059 15.5869 55.308 14.833 55.0105C14.0037 55.545 13.1697 56.0811 12.3311 56.6189C10.884 57.1101 9.49402 56.991 8.16113 56.2615C7.18815 55.2885 6.21517 54.3156 5.24219 53.3425C4.51274 52.0096 4.3936 50.6197 4.88477 49.1726C5.42263 48.334 5.95876 47.5 6.49316 46.6707C6.17582 45.877 5.85811 45.0828 5.54004 44.2879C4.59493 44.0471 3.64181 43.8287 2.68066 43.6326C1.28824 43.0944 0.374833 42.1215 -0.0595703 40.7136C-0.0595703 39.1648 -0.0595703 37.616 -0.0595703 36.0672C0.272562 34.9201 0.947692 34.0265 1.96582 33.3865C3.13317 32.9999 4.32458 32.702 5.54004 32.4929C5.8169 31.6421 6.17432 30.8281 6.6123 30.0505C5.90313 29.1819 5.28757 28.2485 4.76562 27.2507C4.30944 25.6657 4.58743 24.236 5.59961 22.9617C6.5458 21.8956 7.59821 20.9624 8.75684 20.1619C9.85522 19.6734 10.9672 19.6337 12.0928 20.0427C13.0579 20.5746 13.9912 21.1504 14.8926 21.7703C15.6526 21.4176 16.427 21.1 17.2158 20.8172C17.4473 19.9973 17.626 19.1634 17.752 18.3152C18.2024 17.3853 18.937 17.0478 19.9561 17.3025C20.577 17.6307 20.8948 18.1471 20.9092 18.8513C20.723 20.1077 20.5046 21.3586 20.2539 22.6043C20.1149 22.8226 19.976 23.0411 19.8369 23.2595C18.0973 23.8916 16.3897 24.5865 14.7139 25.3445C14.3774 25.3052 14.0597 25.2058 13.7607 25.0466C12.7338 24.277 11.6615 23.582 10.5439 22.9617C10.3726 22.9878 10.2138 23.0473 10.0674 23.1404C9.18202 23.9457 8.38776 24.8193 7.68457 25.7615C8.32179 26.955 9.05649 28.0869 9.88867 29.157C10.127 29.6732 10.127 30.1896 9.88867 30.7058C9.13935 32.1617 8.48408 33.651 7.92285 35.1736C7.71142 35.345 7.47314 35.4642 7.20801 35.531C5.96842 35.7309 4.73731 35.9692 3.51465 36.2459C3.37151 36.3534 3.27222 36.4924 3.2168 36.6629C3.02901 37.6862 2.9893 38.7187 3.09766 39.7605C3.15376 39.9685 3.23319 40.1671 3.33594 40.3562C4.8248 40.727 6.31406 41.1043 7.80371 41.488C8.05588 41.6943 8.2346 41.9525 8.33984 42.2625C8.7093 43.6882 9.26528 45.0386 10.0078 46.3132C10.1401 46.9222 10.021 47.4782 9.65039 47.9812C9.05469 48.8152 8.45898 49.6492 7.86328 50.4832C7.76915 50.8566 7.80886 51.214 7.98242 51.5554C8.68111 52.294 9.41581 52.9889 10.1865 53.6404C10.4645 53.7199 10.7425 53.7199 11.0205 53.6404C11.9736 52.9652 12.9268 52.2902 13.8799 51.615C14.1472 51.5071 14.4252 51.4475 14.7139 51.4363C16.1801 52.1092 17.6892 52.6851 19.2412 53.1638C19.7377 53.3425 20.0752 53.6801 20.2539 54.1765C20.4685 55.5045 20.7464 56.815 21.0879 58.1082C21.2842 58.2532 21.5026 58.3524 21.7432 58.406C22.6566 58.4855 23.5699 58.4855 24.4834 58.406C24.7853 58.3445 25.0434 58.2055 25.2578 57.989C25.5345 56.7664 25.7727 55.5352 25.9727 54.2957C26.1009 53.8613 26.359 53.5236 26.7471 53.283C28.1783 52.9121 29.5285 52.3562 30.7979 51.615C31.3141 51.3767 31.8304 51.3767 32.3467 51.615C33.4521 52.3957 34.5839 53.1304 35.7422 53.8191C36.6844 53.1159 37.558 52.3216 38.3633 51.4363C38.5976 51.0195 38.5578 50.6223 38.2441 50.2449C37.6484 49.4109 37.0527 48.5769 36.457 47.7429C36.3211 47.4377 36.2218 47.1201 36.1592 46.7898C36.8392 45.3661 37.415 43.8967 37.8867 42.3816C38.0685 41.8026 38.4458 41.4254 39.0186 41.2498C40.2403 40.9799 41.4714 40.7615 42.7119 40.5945C44.1678 40.8853 44.6245 41.7193 44.082 43.0964C43.8511 43.4069 43.5533 43.6253 43.1885 43.7517C42.3576 43.9167 41.5236 44.0556 40.6865 44.1687C40.4752 45.0208 40.1574 45.835 39.7334 46.6111C40.3533 47.5125 40.9291 48.4457 41.4609 49.4109C42.0085 51.0412 41.7306 52.5107 40.627 53.8191C39.8092 54.6767 38.9554 55.4909 38.0654 56.2615C36.7729 56.9894 35.4227 57.1086 34.0146 56.6189C33.1282 56.0897 32.2745 55.5139 31.4531 54.8914C30.6618 55.2969 29.8476 55.6543 29.0107 55.9636C28.794 56.8287 28.6153 57.7024 28.4746 58.5847C28.0231 60.1682 27.0104 61.161 25.4365 61.5632Z" fill="#2C833D"/>
<path opacity="0.954" fill-rule="evenodd" clip-rule="evenodd" d="M21.9815 27.9655C22.539 27.9457 23.0949 27.9656 23.6495 28.0251C24.661 28.5198 24.9589 29.2942 24.5431 30.3483C24.404 30.6462 24.1856 30.8646 23.8878 31.0036C21.4946 31.0461 19.4494 31.9 17.752 33.5651C15.4456 36.5379 15.3265 39.5959 17.3946 42.739C19.6807 45.3608 22.4805 46.1352 25.794 45.0622C28.8016 43.6774 30.3305 41.3145 30.3809 37.9733C31.0036 36.6805 31.917 36.4423 33.1212 37.2585C33.4663 37.67 33.6054 38.1466 33.5382 38.6882C33.1219 43.7912 30.461 47.0676 25.5557 48.5173C20.1248 49.4256 16.1336 47.4598 13.5821 42.6198C11.8488 37.8578 12.8218 33.7474 16.5011 30.2888C18.1272 29.0184 19.9541 28.244 21.9815 27.9655Z" fill="#2C833D"/>
<path opacity="0.957" fill-rule="evenodd" clip-rule="evenodd" d="M40.9266 11.8407C44.3149 11.4603 46.9163 12.6913 48.7303 15.534C50.4223 19.186 49.8069 22.3829 46.8836 25.1248C43.4469 27.394 40.1507 27.2153 36.9949 24.5887C34.8006 22.2437 34.2248 19.5432 35.2674 16.4871C36.3698 13.963 38.2562 12.4142 40.9266 11.8407ZM41.284 15.0575C38.803 15.9271 37.7505 17.6745 38.1268 20.2996C39.0313 22.7081 40.7588 23.7208 43.3094 23.3377C45.6392 22.5122 46.6519 20.864 46.3475 18.3934C45.5685 15.9275 43.8808 14.8155 41.284 15.0575Z" fill="#2C833D"/>
</g>
<defs>
<clipPath id="clip0_2015_25">
<rect width="61" height="61" fill="white" transform="translate(0 0.622803)"/>
</clipPath>
</defs>
</svg>
