<svg width="58" height="64" viewBox="0 0 58 64" fill="none" xmlns="http://www.w3.org/2000/svg">
<g clip-path="url(#clip0_2014_14)">
<path opacity="0.98" fill-rule="evenodd" clip-rule="evenodd" d="M12.6309 0.561279C23.2037 0.561279 33.7767 0.561279 44.3496 0.561279C44.8859 0.836823 45.2446 1.288 45.4258 1.91479C45.4824 7.28769 45.5013 12.6607 45.4824 18.0339C50.5326 19.0234 54.0254 22.0995 55.9609 27.2625C57.8159 34.3439 55.9846 39.9835 50.4668 44.1814C48.91 45.1483 47.2486 45.7841 45.4824 46.0886C45.5013 51.4618 45.4824 56.8349 45.4258 62.2078C45.2446 62.8346 44.8859 63.2858 44.3496 63.5613C30.3405 63.5613 16.3314 63.5613 2.32227 63.5613C1.78597 63.2858 1.42726 62.8346 1.2461 62.2078C1.17057 45.8425 1.17057 29.4773 1.2461 13.1121C1.29944 12.8972 1.37497 12.6921 1.47266 12.4968C5.1456 8.44557 8.865 4.46705 12.6309 0.561279ZM15.0098 4.25269C23.9967 4.25269 32.9838 4.25269 41.9707 4.25269C41.9707 8.84643 41.9707 13.4402 41.9707 18.0339C36.6243 18.9668 33.0747 22.2069 31.3223 27.7546C24.1477 27.7341 16.9732 27.7546 9.79883 27.8162C8.65404 28.5535 8.4086 29.5584 9.0625 30.8308C9.25858 31.0913 9.50403 31.2759 9.79883 31.3845C16.7466 31.446 23.6946 31.4666 30.6426 31.446C30.6035 32.6782 30.7168 33.8882 30.9824 35.0759C23.9213 35.1169 16.86 35.158 9.79883 35.199C8.65404 35.9363 8.4086 36.9412 9.0625 38.2136C9.25858 38.4741 9.50403 38.6587 9.79883 38.7673C17.2754 38.8083 24.752 38.8494 32.2285 38.8904C34.4111 42.9689 37.6585 45.3683 41.9707 46.0886C41.9707 50.6823 41.9707 55.2762 41.9707 59.8699C29.5475 59.8699 17.1244 59.8699 4.70117 59.8699C4.70117 45.0633 4.70117 30.2566 4.70117 15.45C7.76001 15.4705 10.8186 15.45 13.877 15.3884C14.4352 15.1513 14.7939 14.7207 14.9531 14.0964C15.0098 10.8154 15.0287 7.53419 15.0098 4.25269ZM11.3848 7.08276C11.4975 8.6195 11.5353 10.1781 11.498 11.7585C10.0627 11.779 8.62776 11.7585 7.19336 11.697C8.61338 10.1752 10.0105 8.63707 11.3848 7.08276ZM42.6504 21.7253C47.6475 21.5969 51.027 24.0578 52.7891 29.1082C53.8665 34.378 52.2995 38.418 48.0879 41.2283C44.2787 43.1361 40.7293 42.6849 37.4395 39.8748C33.8614 35.9659 33.2383 31.5567 35.5703 26.6472C37.2678 23.8801 39.6278 22.2396 42.6504 21.7253Z" fill="#2C833D"/>
<path opacity="0.987" fill-rule="evenodd" clip-rule="evenodd" d="M9.79897 20.3718C14.7835 20.3513 19.7678 20.3718 24.7521 20.4334C25.4148 20.8062 25.7925 21.4009 25.8849 22.2175C25.7925 23.0342 25.4148 23.6289 24.7521 24.0017C19.7677 24.0838 14.7833 24.0838 9.79897 24.0017C8.65418 23.2644 8.40873 22.2595 9.06264 20.9871C9.28525 20.7348 9.53069 20.5297 9.79897 20.3718Z" fill="#2C833D"/>
<path opacity="0.949" fill-rule="evenodd" clip-rule="evenodd" d="M47.4083 27.7546C49.0649 27.8929 49.688 28.8362 49.2774 30.5847C47.4871 32.6525 45.6557 34.6828 43.7833 36.6755C43.1223 37.1758 42.4426 37.2168 41.7442 36.7986C40.4792 35.5887 39.2898 34.2967 38.1759 32.9226C37.5978 31.3074 38.0886 30.323 39.6485 29.9695C40.0748 30.0144 40.4713 30.158 40.838 30.4001C41.461 31.0769 42.0841 31.7537 42.7071 32.4304C44.0476 30.9744 45.3881 29.5183 46.7286 28.0623C46.9677 27.9583 47.1943 27.8558 47.4083 27.7546Z" fill="#2C833D"/>
<path opacity="0.986" fill-rule="evenodd" clip-rule="evenodd" d="M9.79897 42.5203C14.6702 42.4997 19.5413 42.5203 24.4122 42.5818C25.5337 43.2426 25.8169 44.2064 25.2619 45.4734C25.0423 45.7941 24.7591 46.0196 24.4122 46.1502C19.5412 46.2322 14.6701 46.2322 9.79897 46.1502C8.65418 45.4129 8.40873 44.4079 9.06264 43.1355C9.28525 42.8833 9.53069 42.6782 9.79897 42.5203Z" fill="#2C833D"/>
<path opacity="0.986" fill-rule="evenodd" clip-rule="evenodd" d="M9.79897 49.9031C14.6702 49.8825 19.5413 49.9031 24.4122 49.9646C25.5337 50.6254 25.8169 51.5892 25.2619 52.8562C25.0423 53.1769 24.7591 53.4024 24.4122 53.533C19.5412 53.615 14.6701 53.615 9.79897 53.533C8.65418 52.7957 8.40873 51.7908 9.06264 50.5183C9.28525 50.2661 9.53069 50.061 9.79897 49.9031Z" fill="#2C833D"/>
</g>
<defs>
<clipPath id="clip0_2014_14">
<rect width="58" height="63" fill="white" transform="translate(0 0.622803)"/>
</clipPath>
</defs>
</svg>
