<svg width="75" height="84" viewBox="0 0 75 84" fill="none" xmlns="http://www.w3.org/2000/svg">
<g clip-path="url(#clip0_2009_2834)">
<path opacity="0.992" fill-rule="evenodd" clip-rule="evenodd" d="M26.5625 8.4353C34.146 8.41447 41.7293 8.4353 49.3125 8.4978C52.2084 9.22697 54.0209 11.0395 54.75 13.9353C54.8334 29.0187 54.8334 44.1019 54.75 59.1853C54.0209 62.0812 52.2084 63.8937 49.3125 64.6228C41.7292 64.7062 34.1459 64.7062 26.5625 64.6228C23.6667 63.8937 21.8542 62.0812 21.125 59.1853C21.0417 44.1019 21.0417 29.0187 21.125 13.9353C21.8769 11.0377 23.6894 9.20432 26.5625 8.4353ZM27.9375 12.1853C34.6043 12.1645 41.271 12.1853 47.9375 12.2478C49.4045 12.3248 50.3837 13.0539 50.875 14.4353C51.0817 28.8904 51.1233 43.3488 51 57.8103C50.8622 59.2327 50.133 60.2118 48.8125 60.7478C41.8577 60.9524 34.8993 60.9942 27.9375 60.8728C26.4705 60.7958 25.4914 60.0667 25 58.6853C24.7934 44.2302 24.7518 29.7718 24.875 15.3103C25.0848 13.4549 26.1057 12.4132 27.9375 12.1853Z" fill="#2C833D"/>
<path opacity="0.973" fill-rule="evenodd" clip-rule="evenodd" d="M34.6873 15.9353C36.8544 15.9145 39.021 15.9353 41.1873 15.9978C42.2391 16.5412 42.5933 17.3954 42.2498 18.5603C42.0623 19.0812 41.7081 19.4353 41.1873 19.6228C39.0206 19.7062 36.8539 19.7062 34.6873 19.6228C33.5654 18.9788 33.2529 18.0413 33.7498 16.8103C34.0016 16.4463 34.3141 16.1547 34.6873 15.9353Z" fill="#2C833D"/>
<path opacity="0.96" fill-rule="evenodd" clip-rule="evenodd" d="M5.9375 39.4353C5.9375 37.5187 5.9375 35.6019 5.9375 33.6853C6.25588 30.247 7.23505 26.997 8.875 23.9353C9.79693 23.2943 10.7344 23.2735 11.6875 23.8728C12.1649 24.5234 12.3107 25.2525 12.125 26.0603C10.4689 29.361 9.6981 32.861 9.8125 36.5603C9.69814 40.2598 10.469 43.7598 12.125 47.0603C12.4375 49.0812 11.5833 49.9353 9.5625 49.6228C8.78967 49.1457 8.26885 48.4582 8 47.5603C6.92163 44.9353 6.23413 42.2269 5.9375 39.4353Z" fill="#2C833D"/>
<path opacity="0.96" fill-rule="evenodd" clip-rule="evenodd" d="M69.9374 33.6853C69.9374 35.6019 69.9374 37.5187 69.9374 39.4353C69.6189 42.8742 68.6398 46.1242 66.9999 49.1853C66.078 49.8263 65.1405 49.847 64.1874 49.2478C63.71 48.5972 63.5642 47.868 63.7499 47.0603C65.4059 43.7598 66.1768 40.2598 66.0624 36.5603C66.1768 32.8608 65.4059 29.3608 63.7499 26.0603C63.4374 24.0394 64.2915 23.1853 66.3124 23.4978C66.5415 23.6437 66.7708 23.7894 66.9999 23.9353C68.6399 26.997 69.619 30.247 69.9374 33.6853Z" fill="#2C833D"/>
<path opacity="0.958" fill-rule="evenodd" clip-rule="evenodd" d="M15.8123 27.1853C17.8315 26.9337 18.6857 27.8087 18.3748 29.8103C16.663 33.0017 16.2047 36.3767 16.9998 39.9353C17.2868 41.1338 17.7452 42.2588 18.3748 43.3103C18.6873 45.3312 17.8331 46.1853 15.8123 45.8728C15.1605 45.47 14.6813 44.9075 14.3748 44.1853C12.6786 40.1347 12.3453 35.9679 13.3748 31.6853C13.7555 30.2578 14.3388 28.9244 15.1248 27.6853C15.3767 27.5357 15.6059 27.369 15.8123 27.1853Z" fill="#2C833D"/>
<path opacity="0.959" fill-rule="evenodd" clip-rule="evenodd" d="M58.5627 27.1853C59.5852 26.9583 60.3977 27.25 61.0002 28.0603C62.7892 31.4228 63.4558 35.006 63.0002 38.8103C62.768 41.1989 62.018 43.4073 60.7502 45.4353C59.8283 46.0763 58.8908 46.097 57.9377 45.4978C57.4603 44.8472 57.3145 44.118 57.5002 43.3103C59.1162 40.3324 59.6162 37.1658 59.0002 33.8103C58.746 32.3807 58.246 31.0473 57.5002 29.8103C57.1738 28.6329 57.528 27.7579 58.5627 27.1853Z" fill="#2C833D"/>
<path opacity="0.973" fill-rule="evenodd" clip-rule="evenodd" d="M34.6873 53.4353C36.8544 53.4144 39.021 53.4353 41.1873 53.4978C42.2391 54.0413 42.5933 54.8954 42.2498 56.0603C42.0623 56.5812 41.7081 56.9353 41.1873 57.1228C39.0206 57.2062 36.8539 57.2062 34.6873 57.1228C33.5654 56.4788 33.2529 55.5413 33.7498 54.3103C34.0016 53.9463 34.3141 53.6547 34.6873 53.4353Z" fill="#2C833D"/>
</g>
<defs>
<clipPath id="clip0_2009_2834">
<rect width="64" height="64" fill="white" transform="translate(6 4.6228)"/>
</clipPath>
</defs>
</svg>
